# xmcd CD database file
#
# Track frame offsets:
#	150
#	15496
#	32383
#	53595
#	70187
#	87207
#	96361
#	112836
#	119537
#	135501
#	150349
#	166997
#	188372
#	205844
#	224520
#
# Disc length: 3192 seconds
#
# Revision: 0
# Processed by: cddbd v1.4PL0 Copyright (c) Steve Scherf et al.
# Submitted via: CDex 1.50beta9
#
DISCID=b60c760f
DTITLE=Dai Thomas - Songs From the Ragged Backside of the American Dream
DYEAR=2003
DGENRE=Blues
TTITLE0=Bull Frog Blues
TTITLE1=Cocaine Blues
TTITLE2=Candyman
TTITLE3=He Rambled
TTITLE4=Hard Time Killin' Floor Blues
TTITLE5=Airy Man Blues
TTITLE6=You're Gonna Need Somebody On Your Bond
TTITLE7=Handsome Molly
TTITLE8=Last Kind Words Blues
TTITLE9=Shake It and Break It
TTITLE10=Fishing Blues
TTITLE11=Mamma, Tain't Long Fo' Day
TTITLE12=Drop Down Mama
TTITLE13=Leaving Home
TTITLE14=That's No Way To Get Along
EXTD=YEAR: 2003
EXTT0=
EXTT1=
EXTT2=
EXTT3=
EXTT4=
EXTT5=
EXTT6=
EXTT7=
EXTT8=
EXTT9=
EXTT10=
EXTT11=
EXTT12=
EXTT13=
EXTT14=
PLAYORDER=
